<svg version="1.2" xmlns="http://www.w3.org/2000/svg" viewBox="0 0 522 161" width="512" height="158">
	<title>Objet dynamique vectoriel-pdf</title>
	<defs>
		<clipPath clipPathUnits="userSpaceOnUse" id="cp1">
			<path d="m0 0h522v212h-522z"/>
		</clipPath>
	</defs>
	<style>
		.s0 { fill: #ffa54d } 
		.s1 { fill: #323c51 } 
	</style>
	<g id="Page 1" clip-path="url(#cp1)">
		<path id="Path 1" fill-rule="evenodd" class="s0" d="m65.6 70v19.5h-21.8v69.5h-21.9v-69.5h-21.9v-19.5zm21.1 62c0 5.5 4.3 10.5 11.9 10.5 7.1 0 10.2-2 13.9-5.6l12.2 12.2c-6.9 6.9-13.6 10.7-26.1 10.7-14.9 0-32-5.4-32-34.4 0-22 12.5-34.4 30.1-34.4 19.5 0 30.3 14.3 30.3 31.9v9.1zm18.8-18.9c-1.2-2.8-4-5.2-8.8-5.2-4.9 0-7.7 2.4-8.9 5.2-0.9 1.8-1.1 3.7-1.1 5.3h20c0-1.6-0.3-3.5-1.2-5.3zm61.2 46.7c-11.7 0-30.3-5-30.3-34.4 0-29.4 18.6-34.4 30.3-34.4 9.3 0 16.6 3.1 22.1 8.6l-13.9 13.9c-2.6-2.6-4.9-4-8.2-4-2.8 0-4.7 0.9-6.4 2.6-2.4 2.5-3.4 6.9-3.4 13.3 0 6.4 1 10.7 3.4 13.2 1.7 1.8 3.6 2.7 6.4 2.7 3.3 0 5.6-1.4 8.2-4l13.9 13.8c-5.5 5.5-12.8 8.7-22.1 8.7zm68.3-0.8v-40.7c0-7.3-5.2-8.8-7.8-8.8-2.7 0-7.9 1.5-7.9 8.8v40.7h-20.5v-89h20.5v27.3c4.2-4.3 9.6-6.3 14.7-6.3 14.5 0 21.5 10.8 21.5 24.4v43.6z"/>
		<path id="Path 2" fill-rule="evenodd" class="s1" d="m293.7 159.2v-44.5h-7.2v-7.8h16.5v52.3zm5.1-72q2.4 0 4.1 1.7 1.7 1.6 1.7 4 0 2.4-1.7 4.1-1.7 1.7-4.1 1.7-2.3 0-4-1.7-1.7-1.7-1.7-4.1 0-2.4 1.6-4.1 1.7-1.6 4.1-1.6zm51.1 72v-30.4q0-8.4-2.5-11.7-2.5-3.4-8.5-3.4-3.1 0-6.6 1.9-3.5 1.9-5.3 4.7v38.9h-9.3v-52.3h6.3l3 6.8q4.6-7.8 15-7.8 17.2 0 17.2 20.9v32.4zm54.6 0v-30.4q0-8.4-2.5-11.7-2.5-3.4-8.4-3.4-3.2 0-6.7 1.9-3.4 1.9-5.3 4.7v38.9h-9.3v-52.3h6.4l2.9 6.8q4.6-7.8 15-7.8 17.2 0 17.2 20.9v32.4zm19.1-26.3q0-12.1 6.5-19.5 6.5-7.5 17.2-7.5 11.2 0 17.4 7.2 6.2 7.1 6.2 19.8 0 12.7-6.3 20-6.4 7.3-17.3 7.3-11.2 0-17.4-7.4-6.3-7.3-6.3-19.9zm9.8 0q0 19.7 13.9 19.7 6.5 0 10.2-5.2 3.7-5.3 3.7-14.5 0-19.4-13.9-19.4-6.4 0-10.1 5.2-3.8 5.2-3.8 14.2zm89-26.1l-22.9 53.4h-2.5l-22.4-53.4h10.2l13.8 36.6 14.1-36.6zm-359.1-30.4c0.2-34.2 12.2-79.7 54.9-75.9 39.8 3.5 79.5 35.2 82.3 76.7 0.1 1-0.3 6.9-0.5 3.1-2.7-39-43.1-70.2-80.2-73.5-17.2-1.5-32.9 3.8-42.6 18.8-9.6 14.9-13.2 33.3-13.2 50.8-0.1 3.5-0.7 3.5-0.7 0zm-82.1 121.1q-0.3 0.2-1.4 0.5l-1.3 0.5-1.3 0.2c-2.5 0.5-5.2 1.2-7.4 1.2-0.2 0-1.7-0.1-2.5-0.5-0.4-0.2-1.3-1.1-1.7-1.7-0.3-0.5-0.6-1.2-0.6-2.3 0-1.8 1.6-5.3 2.2-7 0.4-1 0.8-2.2 1.3-4 1-2.8 2.2-7.2 2.1-7.7q0-0.5 0.2-1.1c0.2-0.7 0.1-1.9 0.8-2q0.3 0 0.7 0.1c1.3 0.5 1.5 1.8 1.5 2.7 0.1 1.4-0.2 2.3-0.6 3.5-0.9 3.4-1.3 5.8-2.5 9-0.7 2.1-1.7 4.8-2.4 7.2l7.6-0.2 3.3-0.2q0.1 0 1.1-0.1c1.4-0.2 1.4-0.2 1.7 0.2q0.2 1-0.3 1.4z"/>
	</g>
</svg>